<svg width="259" height="253" viewBox="0 0 259 253" xmlns="http://www.w3.org/2000/svg" xmlns:xlink="http://www.w3.org/1999/xlink">
    <defs>
        <linearGradient x1="50%" y1="0%" x2="50%" y2="123.267%" id="u2iej88ovb">
            <stop stop-color="#F8F3FF" offset="0%"/>
            <stop stop-color="#EBDEFB" offset="100%"/>
        </linearGradient>
        <linearGradient x1="41.648%" y1="12.049%" x2="-10.253%" y2="211.473%" id="vm35hzkwwc">
            <stop stop-color="#F67B9A" offset="0%"/>
            <stop stop-color="#B0006D" offset="100%"/>
        </linearGradient>
        <linearGradient x1="75.268%" y1="81.357%" x2="28.973%" y2="38.842%" id="77oe3lgzcf">
            <stop stop-color="#E5CCDB" offset="0%"/>
            <stop stop-color="#FFF5FD" offset="100%"/>
        </linearGradient>
        <linearGradient x1="40.898%" y1="9.189%" x2="56.842%" y2="97.504%" id="yn7bmohuvg">
            <stop stop-color="#D1ACC0" offset="0%"/>
            <stop stop-color="#D6B4C7" offset="3%"/>
            <stop stop-color="#E5CCDB" offset="14%"/>
            <stop stop-color="#F1DEEA" offset="26%"/>
            <stop stop-color="#F9EBF5" offset="41%"/>
            <stop stop-color="#FEF3FB" offset="60%"/>
            <stop stop-color="#FFF5FD" offset="100%"/>
        </linearGradient>
        <linearGradient x1="55.132%" y1="81.01%" x2="66.145%" y2="169.88%" id="aacduo22ch">
            <stop stop-color="#D1ACC0" offset="0%"/>
            <stop stop-color="#D6B4C7" offset="3%"/>
            <stop stop-color="#E5CCDB" offset="14%"/>
            <stop stop-color="#F1DEEA" offset="26%"/>
            <stop stop-color="#F9EBF5" offset="41%"/>
            <stop stop-color="#FEF3FB" offset="60%"/>
            <stop stop-color="#FFF5FD" offset="100%"/>
        </linearGradient>
        <linearGradient x1="43.266%" y1="14.075%" x2="57.246%" y2="94.188%" id="jxbwdr7bii">
            <stop stop-color="#FFF" offset="0%"/>
            <stop stop-color="#D6B4C7" offset="3%"/>
            <stop stop-color="#E5CCDB" offset="14%"/>
            <stop stop-color="#F1DEEA" offset="26%"/>
            <stop stop-color="#F9EBF5" offset="41%"/>
            <stop stop-color="#FEF3FB" offset="55.014%"/>
            <stop stop-color="#FFF" offset="100%"/>
        </linearGradient>
        <radialGradient cx="63.189%" cy="47.362%" fx="63.189%" fy="47.362%" r="70.172%" gradientTransform="matrix(.92808 0 0 1 .045 0)" id="qu71esn8mj">
            <stop stop-color="#B22D80" offset="0%"/>
            <stop stop-color="#821C55" offset="100%"/>
        </radialGradient>
        <radialGradient cx="55.458%" cy="41.527%" fx="55.458%" fy="41.527%" r="95.587%" gradientTransform="matrix(.902 0 0 1 .054 0)" id="5dtgbqieyk">
            <stop stop-color="#FCCFDA" offset="0%"/>
            <stop stop-color="#FACAD5" offset="33.473%"/>
            <stop stop-color="#F6BAC7" offset="52%"/>
            <stop stop-color="#EEA0B1" offset="84%"/>
            <stop stop-color="#E991A3" offset="100%"/>
        </radialGradient>
        <path id="tba6ldniwl" d="M0 0h28.204v29.277H0z"/>
        <path d="m1.199 28.343 3.923-3.667c1.961-1.833 3.072-4.694 3.072-7.36v-3.45C8.194 6.208 14.482 0 22.239 0s14.046 6.208 14.046 13.866v3.248c0 2.784 1.21 5.746 3.325 7.588l4.177 3.641a3.704 3.704 0 0 1 .333 5.275c-.718.804-1.423.977-2.838 1.264-1.415.286-9.4.784-18.748.784-9.349 0-16.345-.315-18.697-.784C1.485 34.412 0 33.186 0 31.094c0-1.04.434-2.035 1.199-2.75z" id="7y2vdiiz8n"/>
        <filter x="-9.9%" y="-7.8%" width="119.9%" height="115.6%" filterUnits="objectBoundingBox" id="1r6l7o5afe">
            <feOffset dx="-7" dy="2" in="SourceAlpha" result="shadowOffsetOuter1"/>
            <feGaussianBlur stdDeviation=".5" in="shadowOffsetOuter1" result="shadowBlurOuter1"/>
            <feColorMatrix values="0 0 0 0 0 0 0 0 0 0 0 0 0 0 0 0 0 0 0.078316215 0" in="shadowBlurOuter1" result="shadowMatrixOuter1"/>
            <feMerge>
                <feMergeNode in="shadowMatrixOuter1"/>
                <feMergeNode in="SourceGraphic"/>
            </feMerge>
        </filter>
        <circle id="o08yddfdja" cx="126.5" cy="126.5" r="126.5"/>
    </defs>
    <g fill="none" fill-rule="evenodd">
        <g>
            <mask id="n695rmgtwd" fill="#fff">
                <use xlink:href="#o08yddfdja"/>
            </mask>
            <use fill="url(#u2iej88ovb)" xlink:href="#o08yddfdja"/>
            <path d="M144.334 47.555c-1.419-3.425-2.464-4.47-5.89-5.889a.72.72 0 0 1 0-1.331c3.426-1.42 4.471-2.465 5.89-5.89a.72.72 0 0 1 1.331 0c1.42 3.425 2.465 4.47 5.89 5.89a.72.72 0 0 1 0 1.331c-3.425 1.418-4.47 2.464-5.89 5.89a.72.72 0 0 1-1.331 0zM207.524 161.682c-1.013-2.446-1.76-3.193-4.206-4.206a.515.515 0 0 1 0-.951c2.446-1.014 3.193-1.761 4.206-4.207a.515.515 0 0 1 .951 0c1.014 2.446 1.76 3.193 4.207 4.207a.515.515 0 0 1 0 .95c-2.446 1.014-3.193 1.76-4.207 4.207a.515.515 0 0 1-.95 0zM232.167 126.778c-.71-1.713-1.232-2.236-2.945-2.945a.36.36 0 0 1 0-.666c1.713-.71 2.236-1.232 2.945-2.945a.36.36 0 0 1 .666 0c.71 1.713 1.232 2.236 2.945 2.945a.36.36 0 0 1 0 .666c-1.713.71-2.236 1.232-2.945 2.945a.36.36 0 0 1-.666 0z" fill="url(#vm35hzkwwc)" mask="url(#n695rmgtwd)"/>
            <g filter="url(#1r6l7o5afe)" mask="url(#n695rmgtwd)">
                <g transform="translate(22 54)">
                    <g fill-rule="nonzero">
                        <path d="M121.43 158.817c6.396-.954 11.495-2.12 15.297-3.5 5.703-2.068 10.367-8.107 12.597-12.207 1.487-2.734-2.076-6.898-10.688-12.492-4.892 4.434-10.145 6.508-15.76 6.22-5.613-.288-11.973.436-19.078 2.172l17.632 19.807z" fill="#FFF"/>
                        <path d="M148.781 150.893c-.7-1.164-11.409-13.761-16.732-17.352-.749-.359-.606-1.059.43-2.1l3.911-3.351L152 141.41c.328.287.328 1.39 0 3.308-.494 2.877-.763 5.619-1.183 6.426-.421.807-1.336.912-2.036-.251z" fill="#BC007A"/>
                        <path d="M136.848 128.482c4.257-7.895 6.71-12.616 7.357-14.163 1.541-3.68.897-3.393 1.849-3.347.352-.507 2.527-6.537 3.599-9.72 1.071-3.183 3.77-4.175 5.826-2.704 1.37.98 1.172 4.096-.596 9.346-.593 1.388-.773 2.318-.537 2.79 1.133.288 2.862 1.024 4.05 2.283 3.278 3.474 3.176 5.343 1.272 9.173-.734 1.475-1.868 5.352-5.322 6.841-.628 3.208-1.41 7.35-2.347 12.43l-15.151-12.93z" fill="#FFF"/>
                        <path d="M11.508 12.51c-2.735 1.122-5.205 3.445-4.734 5.907.47 2.461 1.245 3.036 3.013 2.461 1.178-.383 2.464-.807 3.858-1.271-1.666.939-2.498 1.837-2.498 2.694s.677 1.687 2.032 2.489c-1.506-1.213-1.506-2.35 0-3.413 1.506-1.062 1.929-2.049 1.269-2.96-3.631 1.547-5.707 1.743-6.23.586-.782-1.736.1-3.56 2.53-5.204 1.62-1.096 3.297-1.375 5.029-.837-1.023-1.049-2.446-1.2-4.27-.452z" fill="url(#77oe3lgzcf)" transform="matrix(-1 0 0 1 161 97.882)"/>
                    </g>
                    <path d="M108.663 145.011s19.54-14.58 22.321-11.985c2.781 2.594 9.794 20.509-14.464 27.52-24.258 7.01-7.857-15.535-7.857-15.535z" fill="#BC007A" fill-rule="nonzero"/>
                    <path d="M106.357 144.455s17.114 0 18.041 42.247c.179 8.137-2.292 14.42-5.934 18.136-9 .953-34.466-2.167-54.205-12.967-1.703-.861-2.096-1.636-2.15-3.131-.556-15.565 8.157-44.285 8.157-44.285h36.09z" fill="url(#yn7bmohuvg)" fill-rule="nonzero"/>
                    <path fill="url(#aacduo22ch)" fill-rule="nonzero" d="m41.043 155.81 8.668 6.574-6.303 6.344-3.611-9.264z"/>
                    <path d="M47.79 160.761s-2.528 3.054-5.331 7.263c-.185.275-1.342.86-1.483 1.142-1.44 2.212-4.983 7.154-5.906 9.563 2.159 2.108 9.684 5.5 9.684 5.5s3.835 2.27 6.788 3.711c1.421-1.086 4.784-3.005 6.385-4.507.193-.178.875-2.038 1.068-2.223a89.556 89.556 0 0 0 8.239-8.961c10.655-13.34-3.93-22.724-3.93-22.724L47.79 160.761z" fill="url(#jxbwdr7bii)" fill-rule="nonzero"/>
                    <path d="M68.969 165.578c-.987 1.92-15.41.786-16.87 0-4.82-2.594-9.27-8.893-10.567-8.893-1.298 0-.26 6.166 1.98 9.79l-1.053 1.55s-4.76-8.25-2.84-12.14c1.92-3.892 17.797-5.99 17.797-5.99s7.845-3.646 9.202.43c1.357 4.077 3.337 11.548 2.35 15.254z" fill="#BC007A" fill-rule="nonzero"/>
                    <path d="M8.06 95.42C5.908 82.954 6.946 47.897 27.28 40.137c13.592-5.188 34.533 8.709 55.296 4.506 15.616-3.157 20.562-21.716 30.136-22.583-12.666-7.411-30.27-10.376-55.237-5.929-50.424 8.96-62.578 48.057-55.37 84.24 8.335 41.816 33.05 53.216 60.805 53.164l-9.795-2.157S16.468 144.085 8.059 95.42z" fill="#9D0066" fill-rule="nonzero"/>
                    <path d="M96.28 149.273c64.29-14.082 50.638-63.54 47.235-77.325-5.043-20.293-13.103-39.497-30.781-49.888-9.573.867-17.122 15.565-32.746 18.759-20.763 4.202-40.288-8.153-53.88-2.965-20.34 7.76-20.177 45.1-18.026 57.566 8.409 48.665 44.491 56.818 44.491 56.818l10.382 1.282c10.856-.045 22.275-1.823 33.324-4.247z" fill="#FFF" fill-rule="nonzero"/>
                    <path d="M111.421 26.611s-10.174-11.658-12.65-23.547c-.09-.451.062-.917.4-1.23l1.55-1.482a1.32 1.32 0 0 1 1.795 0 103.83 103.83 0 0 1 23.944 34.041c-5.584 0-15.039-7.782-15.039-7.782z" fill="#FFF" fill-rule="nonzero"/>
                    <path d="M34.117 40.322S7.71 15.123 4.693 15.308C1.675 15.494-.72 28.65.199 37.358c1.847 7.285 11.672 32.981 11.672 32.981l22.246-30.017z" fill="#EDE8EC" fill-rule="nonzero"/>
                    <path d="M12.264 59.348.014 32.37c-.042 1.665.02 3.33.185 4.988 1.239 4.87 6.036 17.966 9.099 26.118l2.966-4.128z" fill="#EDE8EC" fill-rule="nonzero"/>
                    <path d="M96.28 149.273c64.29-14.082 50.638-63.54 47.235-77.325-4.865-19.604-12.554-38.185-29.009-48.798a5 5 0 0 0-4.286-.549c-8.49 2.846-16.017 15.342-30.254 18.218-20.763 4.202-40.28-8.153-53.88-2.965-17.9 6.79-22.483 37.659-19.51 56.966 8.039 52.126 42.023 56.432 45.649 57.344.19.05.383.088.578.11l9.744 1.201c.224.03.45.045.675.045 10.834-.045 22.12-1.846 33.057-4.247z" fill="url(#qu71esn8mj)" fill-rule="nonzero"/>
                    <path d="M96.28 149.273c64.29-14.082 50.638-63.54 47.235-77.325-4.865-19.604-12.554-38.185-29.009-48.798a5 5 0 0 0-4.286-.549c-8.49 2.846-16.017 15.342-30.254 18.218-20.763 4.202-40.28-8.153-53.88-2.965-17.9 6.79-22.483 37.659-19.51 56.966 8.039 52.126 42.023 56.432 45.649 57.344.19.05.383.088.578.11l9.744 1.201c.224.03.45.045.675.045 10.834-.045 22.12-1.846 33.057-4.247z" fill="#DA0091" fill-rule="nonzero"/>
                    <path d="M138.799 71.451c-2.477-9.88-12.34-36.08-31.145-26.808l-.356.275a7.419 7.419 0 0 1 3.322-.149c7.66 1.483 12.354 12.6 17.3 29.647 4.946 17.046 29.165 53.119-32.605 64.977-61.77 11.859-62.066-14.082-65.773-39.037-3.708-24.954 1.98-41.505 13.347-44.958-11.612 2.964-28.667 13.34-24.715 41.75 3.952 28.408 17.797 62.257 81.071 45.21 63.275-17.047 42.045-61.02 39.554-70.907z" fill="#BC007A" fill-rule="nonzero"/>
                    <path d="M127.943 74.416c-4.946-17.047-9.64-28.164-17.3-29.647a7.419 7.419 0 0 0-3.322.149c-6.378 1.652-12.606 10.576-22.142 12.703-13.348 2.965-30.893-5.685-42.268-2.223-11.375 3.46-17.055 20.011-13.347 44.958 3.707 24.948 3.937 50.896 65.751 39.037 61.814-11.858 37.551-47.93 32.628-64.977z" fill="url(#5dtgbqieyk)" fill-rule="nonzero"/>
                    <path d="M4.693 15.308c-2.588.163-4.716 9.865-4.687 18.1 1.402-5.589 3.597-12.015 7.66-16.514-1.438-1.008-2.499-1.615-2.973-1.586zM102.516.367a1.32 1.32 0 0 0-1.795 0l-1.55 1.482c-.338.313-.49.778-.4 1.23.17.815.385 1.638.623 2.453 1.327-1.237 2.832-2.468 3.463-2.438.63.03 2.684 1.12 4.516 2.142a83.695 83.695 0 0 0-4.857-4.87z" fill="#892E60" fill-rule="nonzero"/>
                    <path d="M76.354 86.26c1.713-.742-3.9-9.554-14.608-10.28-10.426-.704-19.636 4.447-18.152 17.669-.868 1.971-1.98 1.112-2.099 2.342-.119 1.23 3.33 4.076 5.302 2.928 1.972-1.15 29.557-12.66 29.557-12.66z" fill="#4B222B" fill-rule="nonzero"/>
                    <ellipse fill="#FFF" fill-rule="nonzero" cx="61.746" cy="92.923" rx="16.306" ry="14.971"/>
                    <path d="M119.593 84.792s5.932-1.482 5.932-4.817c0-1.527-.986.274-2.47-1.527-1.482-1.801-5.642-9.28-12.917-10.829-6.97-1.482-15.713 1.483-16.862 8.405-1.15 6.923 26.317 8.768 26.317 8.768z" fill="#4B222B" fill-rule="nonzero"/>
                    <path d="M120.053 79.256c3.129 7.767-.052 15.809-7.416 18.773-7.363 2.965-15.876-.926-19.005-8.686-3.13-7.76-1.105-16.269 6.407-18.84 8.06-2.758 16.884.993 20.014 8.753z" fill="#FFF" fill-rule="nonzero"/>
                    <g fill-rule="nonzero">
                        <path d="M104.93 86.567c4.619 0 8.364-3.74 8.364-8.353 0-4.613-3.745-8.353-8.365-8.353s-8.364 3.74-8.364 8.353c0 4.613 3.745 8.353 8.364 8.353z" fill="#883F77"/>
                        <path d="M104.684 83.335c2.802 0 5.072-2.16 5.072-4.825 0-2.664-2.27-4.825-5.072-4.825-2.8 0-5.072 2.16-5.072 4.825s2.271 4.825 5.072 4.825z" fill="#232828"/>
                        <path d="M108.253 74.797c.427-.43.267-1.281-.358-1.902-.624-.62-1.477-.774-1.904-.345-.427.43-.267 1.281.358 1.902.624.62 1.477.774 1.904.345z" fill="#FFF6FE"/>
                    </g>
                    <g transform="translate(56.817 78.966)" fill-rule="nonzero">
                        <ellipse fill="#8E4C82" cx="8.594" cy="8.679" rx="8.594" ry="8.679"/>
                        <ellipse fill="#232828" cx="9.024" cy="8.99" rx="5.213" ry="5.018"/>
                        <ellipse fill="#FFF6FE" transform="rotate(-44.27 11.354 5.88)" cx="11.354" cy="5.88" rx="1.342" ry="1.957"/>
                    </g>
                    <path d="M95.745 59.726c.134 1.527 3.893-1.364 6.162-1.727 2.27-.363 8.002.452 8.454-.54.452-.994-.986-4.996-3.767-5.27-2.78-.275-11.279 2.542-10.849 7.537zM45.484 68.805c.794 2.224 6.496-1.727 9.336-1.816 2.84-.089 6.022 1.275 7.475 0 1.453-1.274-1.001-5.996-8.409-5.27-7.408.727-9.492 4.092-8.402 7.086z" fill="#302E2B" fill-rule="nonzero"/>
                    <path d="M70.737 112.385c.257-1.237 6.84 5.554 22.504 1.955 15.664-3.599 12.69-8.284 14.176-7.549 1.486.735-.377 5.323-12.927 8.333-12.55 3.01-24.378.271-23.753-2.739z" fill="#50081C" fill-rule="nonzero"/>
                    <path d="M40.263 165.483s15.336 5.084 19.785 16.453c-.185 1.23-1.565 1.482-2.12 1.482-.557 0-9.181-5.703-23.641-10.891-.623-.727 4.93-7.325 5.976-7.044zM92.966 152.977c16.736-1.527 20.155 7.886 22.312 16.26 2.158 8.376 1.888 24.733-15.99 24.733-17.879 0-14.831-7.411-17.211-17.343-2.38-9.931-5.521-22.123 10.889-23.65z" fill="#BC007A" fill-rule="nonzero"/>
                    <g transform="matrix(-1 0 0 1 113.112 158.664)">
                        <mask id="xddahw17zm" fill="#fff">
                            <use xlink:href="#tba6ldniwl"/>
                        </mask>
                        <path d="M7.809 9.28c1.127-.099 2.318-1.306 2.325-2.87.004-1.59-1.106-2.966-2.523-2.986C6.352 3.406 5.038 4.68 5.16 6.362 5.016 7.85 6.353 9.407 7.809 9.28zm-.177 14.948c1.397-.129 2.52-1.441 2.45-3.205-.063-1.583-1.136-2.676-2.415-2.652-1.32.023-2.629 1.31-2.548 3.11-.121 1.603 1.112 2.876 2.513 2.747zm5.363-17.815c-.01 3.338-2.422 6.206-5.207 6.312-3.187.12-5.759-2.907-5.74-6.494.018-3.398 2.56-6.474 5.596-6.216 2.932-.052 5.36 3.05 5.351 6.398zm-.06 14.965c-.163 3.284-2.331 6.018-5.238 6.322-3.145.329-5.794-2.446-5.683-6.318.097-3.39 2.585-6.395 5.63-6.435 2.955-.103 5.474 2.723 5.29 6.43zm13.154-9.364c-.017.348-.043.387-.315.393-.716.016-1.437.027-2.163.038-.309.004-.321-.013-.304-.405l.262-5.649.078-1.696c.018-.41-.17-.655-.437-.792-.245-.126-.509-.161-.772.033-.318.234-.391.608-.41 1.006-.095 1.929-.181 3.857-.27 5.785-.023.477-.042.952-.073 1.428-.019.29-.05.32-.283.324-.72.014-1.447.026-2.177.037-.384.005-.398-.015-.36-.497.007-.07.011-.142.015-.213.106-2.303.21-4.605.32-6.907a1.595 1.595 0 0 0-.104-.682c-.153-.392-.544-.614-.927-.515-.356.092-.642.475-.67.91-.05.78-.1 1.56-.142 2.342-.072 1.355-.07 2.71-.157 4.065-.024.39-.053.78-.074 1.17-.017.346-.023.36-.311.365-.765.014-1.536.026-2.312.038-.321.004-.36-.045-.343-.427.112-2.425.222-4.85.34-7.274.031-.613.105-1.232.316-1.802.258-.696.674-1.257 1.166-1.729.249-.238.532-.401.82-.556.448-.241.904-.403 1.389-.393.26.006.52.018.778.033.122.008.25.004.364.05.454.18.899.385 1.287.73.057.05.116.1.192.06.111-.058.23-.105.332-.182.381-.28.803-.458 1.22-.492.568-.046 1.142-.063 1.695.167.332.137.623.34.909.561.466.36.794.88 1.063 1.466.14.304.225.635.281.973.058.346.129.69.111 1.056-.062 1.186-.113 2.371-.166 3.557m-.177 18.784c-.016.415-.061.477-.37.483-.675.014-1.353.022-2.036.032-.47.006-.471.005-.446-.61.102-2.526.208-5.05.308-7.572.028-.704-.43-1.217-1.052-.975-.278.108-.48.37-.561.781-.07.354-.063.696-.076 1.046-.088 2.158-.179 4.316-.267 6.477-.008.18-.015.362-.024.542-.011.219-.096.333-.277.333-.793.001-1.592.002-2.397.007-.177 0-.252-.097-.236-.312.005-.066.005-.132.007-.198.103-2.43.204-4.859.31-7.284a2.425 2.425 0 0 0-.109-.83c-.11-.354-.547-.685-.925-.518-.462.2-.692.516-.72 1.107-.043.912-.075 1.824-.118 2.736-.068 1.41-.14 2.82-.213 4.23-.014.253.02.503-.016.758-.03.223-.109.31-.296.305-.514-.014-1.032-.011-1.552-.016-.295-.004-.59-.004-.887-.013-.252-.01-.315-.1-.3-.386.008-.187 0-.372.008-.559.099-2.333.196-4.665.307-6.995.02-.408.058-.834.172-1.224a4.79 4.79 0 0 1 1.362-2.227c.346-.321.724-.553 1.114-.774.285-.162.579-.182.867-.265a2.55 2.55 0 0 1 1.214-.046c.542.106 1.057.32 1.504.704.115.1.248.077.375-.001.114-.071.226-.146.333-.231.464-.365.972-.497 1.485-.575.236-.037.477-.044.709-.013.279.036.565.082.822.201a3.85 3.85 0 0 1 1.09.757c.595.592.948 1.387 1.117 2.33.095.536.103 1.105.069 1.68-.064 1.076-.093 2.155-.137 3.234" fill="#FFF" mask="url(#xddahw17zm)"/>
                    </g>
                </g>
            </g>
        </g>
        <path d="M213.467 24C238.614 24 259 44.371 259 69.5S238.614 115 213.467 115a45.38 45.38 0 0 1-30.14-11.394l-13.355 3.662a3.137 3.137 0 0 1-3.738-4.213l.172-.355 6.769-11.988a45.275 45.275 0 0 1-5.24-21.212c0-25.129 20.385-45.5 45.532-45.5z" fill="#EB2F96"/>
        <g transform="translate(190.337 47.12)">
            <ellipse fill="#FFF7FA" cx="22.239" cy="35.661" rx="8.583" ry="8.474"/>
            <g transform="translate(0 1.924)">
                <mask id="l3crf4jo9o" fill="#fff">
                    <use xlink:href="#7y2vdiiz8n"/>
                </mask>
                <use fill="#FFF0F6" xlink:href="#7y2vdiiz8n"/>
                <path d="M-8.225 38.73h61.631a2.112 2.112 0 0 0 1.108-3.912l-12.787-7.875a36.493 36.493 0 0 0-38.273 0l-12.787 7.875a2.112 2.112 0 0 0 1.108 3.911z" fill="#FF85C0" opacity=".352" mask="url(#l3crf4jo9o)"/>
            </g>
            <path stroke="#FFF0F6" stroke-width="5.563" stroke-linecap="round" d="M22.239 8.439V0"/>
            <ellipse stroke="#EB2F96" stroke-width="2.07" fill="#FFF" cx="35.153" cy="6.305" rx="5.408" ry="5.404"/>
        </g>
    </g>
</svg>
